<?xml version="1.0" standalone="no"?>
<!DOCTYPE svg PUBLIC "-//W3C//DTD SVG 20010904//EN"
 "http://www.w3.org/TR/2001/REC-SVG-20010904/DTD/svg10.dtd">
<svg version="1.0" xmlns="http://www.w3.org/2000/svg"
 width="480.000000pt" height="480.000000pt" viewBox="0 0 480.000000 480.000000"
 preserveAspectRatio="xMidYMid meet">
<metadata>
Created by potrace 1.14, written by Peter Selinger 2001-2017
</metadata>
<g transform="translate(0.000000,480.000000) scale(0.100000,-0.100000)"
fill="#000000" stroke="none">
<path d="M3825 4328 c-14 -21 -14 -24 2 -35 24 -18 36 -16 52 9 12 19 11 23
-5 35 -24 18 -30 17 -49 -9z"/>
<path d="M4510 4330 c-11 -11 -20 -24 -20 -29 0 -5 -13 -9 -30 -9 -40 1 -60
-18 -60 -58 0 -32 20 -63 43 -65 12 -1 57 -7 90 -11 27 -4 78 115 65 153 -8
23 -32 38 -60 39 -5 0 -17 -9 -28 -20z"/>
<path d="M3050 4330 c-73 -9 -218 -55 -297 -94 -29 -14 -56 -26 -59 -26 -8 0
-138 -76 -219 -129 -152 -98 -344 -269 -475 -421 -36 -41 -67 -77 -70 -80 -3
-3 -28 -36 -57 -75 -87 -120 -158 -235 -218 -357 -46 -95 -60 -115 -70 -104
-34 34 -102 182 -110 241 -2 11 -6 34 -10 50 -11 52 -5 183 11 248 8 34 17 70
19 79 8 35 78 165 115 213 21 28 59 70 84 94 43 42 46 43 83 34 21 -6 45 -14
55 -18 12 -5 18 1 23 27 16 72 36 97 94 119 75 29 223 34 301 10 84 -26 153
-4 158 51 8 89 -51 111 -213 78 -87 -17 -235 -60 -269 -77 -28 -14 -31 -14
-46 4 -43 54 -109 47 -122 -13 -2 -10 -11 -17 -19 -15 -71 19 -105 -16 -86
-90 5 -21 0 -30 -36 -59 -162 -131 -267 -313 -301 -526 -36 -223 17 -401 161
-541 l64 -62 -30 -108 c-49 -173 -65 -277 -64 -428 1 -85 9 -157 28 -242 3
-13 2 -23 -2 -23 -5 0 -16 -14 -26 -31 -17 -30 -17 -32 0 -45 10 -8 31 -17 46
-20 19 -5 34 -19 47 -45 11 -21 20 -40 20 -41 0 -2 -12 -4 -27 -5 -15 0 -29
-6 -31 -12 -5 -14 -32 -14 -32 -1 0 6 -12 22 -26 35 -19 18 -33 23 -50 19 -15
-4 -34 0 -49 10 -28 18 -39 15 -55 -14 -9 -16 -3 -22 42 -45 47 -23 54 -25 64
-11 16 23 23 20 21 -11 -1 -18 3 -27 11 -25 6 1 12 -8 12 -19 0 -17 4 -20 23
-15 12 3 25 6 30 6 4 0 7 9 7 20 0 13 7 20 19 20 10 0 24 6 30 14 11 13 15 12
32 -5 20 -20 18 -39 -4 -39 -18 0 -47 -37 -47 -60 0 -29 16 -24 30 9 7 19 19
29 30 28 16 -1 18 -9 16 -49 -2 -49 17 -75 29 -38 7 22 37 37 33 15 -2 -7 2
-14 7 -14 6 0 9 7 7 15 -5 24 15 16 42 -18 15 -18 31 -38 36 -45 6 -7 10 -16
10 -21 0 -5 7 -16 17 -23 13 -11 17 -11 20 -1 8 23 25 12 21 -13 -3 -15 1 -30
10 -37 12 -11 17 -9 30 10 18 27 28 28 35 2 4 -17 12 -20 48 -16 23 2 63 -3
87 -12 l44 -15 -5 -41 c-5 -36 -3 -43 16 -51 14 -7 21 -17 19 -30 -5 -26 -23
-37 -39 -23 -17 14 -44 -7 -36 -28 3 -8 0 -14 -6 -14 -7 0 -14 7 -17 15 -6 14
-8 13 -20 -2 -12 -16 -13 -16 -14 -1 0 11 -6 15 -20 11 -11 -3 -17 -9 -15 -14
3 -4 -5 -15 -18 -24 -20 -13 -28 -13 -49 -3 -13 8 -23 19 -20 26 2 7 -2 10
-10 7 -9 -4 -20 5 -28 20 -8 15 -21 30 -30 35 -18 9 -60 -5 -60 -20 0 -15 -14
-12 -72 14 -29 13 -78 31 -110 40 -44 14 -57 22 -62 42 -7 28 -18 30 -41 8
-11 -12 -25 -14 -48 -9 -18 4 -48 7 -68 8 -28 1 -35 5 -32 18 3 9 -3 19 -12
23 -19 7 -48 -11 -39 -25 5 -9 4 -10 -34 -14 -25 -3 -30 10 -7 19 17 6 9 36
-10 36 -18 0 -48 -37 -40 -49 9 -15 -28 -14 -44 2 -10 10 -15 8 -26 -6 -7 -10
-29 -23 -49 -28 -33 -9 -39 -8 -55 12 -12 15 -23 20 -39 15 -26 -9 -40 -45
-21 -57 28 -17 -4 -23 -33 -6 -29 17 -31 17 -44 0 -17 -23 -17 -40 0 -46 11
-5 8 -18 -17 -66 -24 -44 -35 -57 -44 -49 -7 5 -17 7 -23 3 -17 -10 -11 -32
10 -38 11 -3 22 -11 24 -19 2 -7 9 -31 15 -53 5 -22 27 -58 48 -80 25 -27 37
-48 37 -70 1 -20 -4 -29 -13 -27 -18 4 -51 -27 -51 -49 0 -9 19 -31 42 -48 37
-27 42 -29 53 -14 7 9 23 17 36 18 19 1 25 8 27 34 2 21 -3 40 -14 52 -24 27
-14 32 35 15 23 -9 45 -15 49 -16 4 0 7 -9 7 -20 0 -11 6 -25 13 -32 10 -10
15 -10 22 2 6 8 8 21 5 28 -3 9 4 11 23 7 56 -10 128 -19 155 -18 16 0 27 -5
27 -13 0 -8 7 -14 16 -14 8 0 12 4 9 10 -3 5 -3 10 2 11 4 0 44 2 88 4 79 4
125 9 187 20 18 3 40 7 48 9 8 1 41 10 73 19 32 10 65 16 75 15 23 -4 67 -69
52 -78 -6 -3 -9 -17 -7 -31 4 -20 10 -24 38 -24 19 0 45 -8 59 -17 13 -10 31
-18 39 -18 21 0 101 48 136 81 l30 28 135 -95 c258 -183 460 -290 690 -364 72
-23 212 -57 275 -66 28 -3 59 -9 70 -11 11 -2 94 -6 185 -8 246 -6 421 26 605
110 71 32 201 109 220 129 6 6 28 24 50 41 122 91 286 301 338 433 17 42 17
43 -8 68 -19 19 -31 23 -52 18 -48 -11 -68 -30 -103 -95 -130 -248 -323 -455
-516 -552 -53 -27 -161 -66 -204 -74 -14 -2 -41 -8 -61 -12 -39 -9 -277 -6
-319 3 -52 12 -126 27 -140 30 -9 1 -20 5 -26 8 -6 4 -21 9 -35 11 -21 4 -77
24 -144 52 -11 5 -22 9 -25 10 -3 0 -41 18 -84 38 -110 52 -217 114 -378 221
-121 79 -138 94 -138 118 0 38 -23 57 -65 53 -27 -2 -39 2 -48 16 -7 11 -23
19 -39 19 -14 0 -34 7 -42 16 -15 14 -13 19 14 58 29 40 31 48 29 127 -1 46
-5 89 -10 94 -5 7 3 23 19 40 43 47 80 98 111 155 17 31 31 48 36 41 5 -9 10
-9 21 0 7 6 12 15 9 19 -3 5 21 23 52 40 32 18 83 50 113 70 30 20 61 35 68
33 6 -3 12 0 12 5 0 5 19 22 43 37 37 25 60 49 62 65 3 20 30 51 50 56 15 4
28 17 35 37 10 29 12 31 24 14 11 -14 15 -15 25 -3 9 10 8 16 -4 26 -13 10
-13 14 0 27 8 8 19 12 24 8 11 -6 99 14 105 24 2 3 -2 29 -9 56 -13 49 -13 51
19 100 18 28 46 73 61 101 18 32 34 50 42 47 9 -3 12 3 11 19 -3 32 28 95 52
108 28 15 43 47 31 67 -6 12 -4 27 6 47 9 16 26 61 39 100 29 85 48 114 80
126 29 12 32 46 4 55 -21 7 -26 24 -12 40 5 6 15 42 22 82 10 54 16 70 27 66
10 -4 12 -14 8 -35 -8 -33 14 -57 51 -58 58 -1 74 100 17 105 -10 1 -33 5 -51
9 -28 7 -33 12 -28 29 3 12 6 29 6 38 0 9 9 19 20 22 24 6 27 27 4 27 -13 0
-15 8 -10 43 4 23 7 85 7 137 0 72 4 99 16 113 15 16 15 19 -5 38 -12 11 -22
23 -23 27 -7 61 -23 117 -44 159 -14 26 -5 66 26 125 7 12 13 40 13 60 1 27 9
47 30 68 30 33 66 56 66 43 1 -19 18 -33 33 -27 12 4 15 13 11 30 -8 31 30 66
64 59 29 -7 40 19 18 44 -9 10 -16 31 -16 48 0 34 -21 81 -42 94 -23 15 -64
10 -91 -11 -30 -23 -37 -25 -37 -7 0 17 -40 55 -60 57 -30 4 -49 0 -64 -15
-13 -13 -19 -14 -38 -3 -69 38 -205 53 -338 38z m110 -75 c100 -35 157 -118
163 -239 3 -74 -6 -83 -57 -58 -36 18 -149 12 -185 -9 -56 -33 -91 -89 -91
-148 0 -20 -8 -34 -25 -45 -29 -19 -30 -24 -11 -49 12 -15 17 -16 34 -6 16 10
22 9 41 -10 11 -11 21 -25 21 -31 0 -5 4 -10 9 -10 16 0 22 36 11 64 -16 43
-13 68 8 62 22 -7 49 31 33 47 -17 17 -13 23 19 25 40 3 83 -20 116 -63 l26
-35 -41 -83 c-56 -110 -168 -275 -192 -282 -10 -4 -19 -13 -19 -22 0 -42 -191
-230 -335 -328 -55 -38 -59 -40 -52 -23 7 19 -11 38 -29 31 -19 -7 -18 -30 3
-41 14 -8 6 -15 -44 -41 l-61 -30 -11 27 c-7 15 -20 38 -30 51 l-19 24 -46
-27 c-25 -15 -46 -30 -46 -34 0 -4 9 -18 20 -32 19 -25 27 -60 13 -60 -5 0
-18 -3 -30 -6 -18 -5 -21 -3 -16 15 4 15 1 21 -12 21 -13 0 -16 -6 -11 -23 5
-22 1 -24 -62 -36 -162 -31 -323 -24 -424 16 -37 15 -38 16 -22 34 9 10 25 21
35 24 23 8 24 33 3 63 -14 21 -12 27 33 114 123 241 296 493 466 682 118 131
227 231 335 309 200 144 371 201 482 162z m191 -817 c1 -51 -1 -137 -5 -205
-1 -17 -9 -39 -17 -49 -9 -11 -10 -19 -3 -21 12 -4 -14 -143 -35 -181 -6 -12
-10 -26 -7 -31 11 -17 -26 -119 -48 -130 -58 -31 -81 -49 -84 -68 -4 -26 36
-43 49 -22 15 25 21 1 8 -35 -10 -27 -19 -36 -36 -36 -14 0 -23 6 -23 15 0 18
-36 20 -46 3 -4 -6 1 -18 12 -27 19 -16 28 -51 16 -61 -4 -3 -15 -17 -25 -32
-17 -27 -17 -29 2 -44 19 -17 19 -18 -7 -70 -14 -30 -31 -54 -37 -54 -7 0 -11
-10 -11 -22 1 -16 -5 -24 -19 -26 -29 -4 -50 -39 -34 -58 9 -11 6 -22 -15 -54
-14 -22 -26 -45 -26 -51 0 -6 -9 -9 -19 -6 -21 5 -34 -14 -25 -38 6 -14 -20
-49 -38 -51 -4 -1 -13 -2 -19 -3 -5 0 -9 -9 -7 -19 5 -32 -87 -148 -106 -133
-20 15 -80 18 -126 6 -50 -12 -53 -24 -25 -92 11 -25 18 -31 32 -26 15 6 16 4
6 -8 -17 -21 -99 -79 -104 -74 -3 2 -3 22 -1 44 3 27 9 41 18 41 8 0 14 7 14
15 0 8 -7 15 -15 15 -18 0 -19 4 -2 30 9 16 9 22 0 28 -6 4 -11 28 -11 54 0
43 2 47 18 38 17 -9 30 -4 30 11 0 5 -9 13 -21 19 -17 9 -23 8 -33 -6 -12 -16
-15 -15 -31 10 -15 23 -16 29 -5 36 8 5 22 4 32 -1 15 -8 18 -6 18 11 0 17 -4
20 -19 15 -14 -4 -21 0 -26 15 -4 14 -12 19 -22 16 -36 -14 -63 -17 -63 -8 0
6 -9 13 -19 17 -11 3 -18 12 -15 20 3 7 1 16 -5 20 -6 3 -11 -1 -11 -9 0 -16
-26 -21 -54 -10 -23 9 -20 24 5 24 18 0 20 5 16 27 -3 17 0 31 10 38 17 12 8
45 -13 45 -7 0 -18 -9 -24 -20 -6 -11 -17 -20 -25 -20 -9 0 -15 -10 -15 -24 0
-13 -6 -29 -14 -36 -8 -6 -16 -21 -18 -32 -2 -12 -9 -23 -17 -26 -9 -3 -11 1
-7 15 4 13 0 25 -10 34 -14 11 -18 11 -30 -6 -13 -17 -19 -14 -15 9 2 9 -18
26 -31 26 -11 0 -47 -65 -45 -82 2 -9 8 -22 15 -30 14 -17 4 -58 -14 -58 -8 0
-14 -3 -14 -7 0 -5 -14 -16 -31 -25 -17 -10 -27 -22 -24 -28 8 -14 48 -13 63
2 15 15 18 11 25 -39 5 -40 4 -42 -14 -32 -13 6 -19 6 -20 -1 -1 -5 -2 -14 -3
-19 0 -5 -4 -12 -8 -16 -4 -4 0 -18 9 -31 14 -22 17 -23 43 -9 24 13 30 13 37
1 4 -7 28 -26 53 -41 25 -16 39 -30 32 -33 -6 -2 -12 -13 -12 -24 0 -20 1 -20
26 -3 26 17 27 17 21 -4 -7 -26 31 -67 47 -51 13 13 36 13 36 0 0 -5 -6 -10
-14 -10 -8 0 -22 -8 -32 -17 -26 -27 -150 -28 -228 -2 -65 22 -90 38 -69 46
16 6 -12 65 -39 82 -16 10 -22 8 -38 -11 l-20 -23 6 35 c4 19 12 40 20 46 17
14 4 29 -28 31 -20 0 -28 -5 -32 -23 -9 -35 -20 -30 -54 23 -29 44 -30 48 -16
76 20 37 12 59 -19 52 -21 -6 -25 0 -47 61 -13 38 -23 82 -23 99 1 16 -1 37
-5 45 -3 8 -6 29 -7 47 -1 17 -5 39 -8 47 -4 11 -1 16 10 16 8 0 24 10 35 22
19 22 19 23 0 31 -38 17 -51 114 -29 222 3 11 7 37 11 58 7 36 27 49 41 27 11
-17 25 -11 37 15 10 21 8 27 -8 39 -16 13 -21 12 -36 -1 -21 -19 -22 -12 -7
40 11 40 18 42 84 27 185 -42 443 -30 621 28 98 32 227 93 296 140 33 22 52
29 83 27 57 -4 89 26 44 40 -19 6 -19 8 8 31 28 24 49 32 38 15 -3 -5 5 -17
17 -26 22 -15 24 -14 41 7 18 22 18 23 -4 41 l-22 18 49 44 c27 24 52 44 55
45 4 0 9 -9 12 -19 7 -28 44 -16 62 19 13 25 13 28 -7 37 -20 9 -20 10 10 45
20 22 40 35 54 34 18 -1 24 5 26 29 4 34 66 115 88 115 7 0 19 9 26 20 20 32
28 24 29 -32z m-2158 -2018 c-3 -13 1 -22 12 -26 20 -8 38 15 25 32 -13 14 -2
24 26 24 22 0 23 -2 12 -25 -10 -21 -8 -28 8 -40 17 -14 22 -12 49 19 l30 33
60 -17 c117 -33 295 -123 295 -149 0 -8 6 -30 13 -49 10 -28 10 -36 0 -39 -19
-7 -16 -31 5 -35 19 -4 -83 -41 -173 -61 -61 -14 -281 -16 -340 -3 -72 16 -96
28 -85 41 8 9 4 17 -15 29 -23 15 -25 15 -37 -3 -12 -19 -12 -19 -49 0 -96 48
-108 158 -27 230 22 19 37 25 48 19 19 -10 64 6 55 20 -3 5 1 10 9 10 9 0 16
-5 16 -11 0 -6 7 -9 16 -7 8 2 14 7 14 12 -2 11 22 26 31 20 4 -2 5 -13 2 -24z"/>
<path d="M3120 3766 c0 -9 7 -16 16 -16 9 0 14 5 12 12 -6 18 -28 21 -28 4z"/>
<path d="M2637 3751 c-17 -17 -17 -19 1 -40 17 -23 18 -23 41 -4 23 19 23 20
5 41 -22 26 -24 26 -47 3z"/>
<path d="M3190 3744 c0 -8 5 -12 10 -9 6 4 8 11 5 16 -9 14 -15 11 -15 -7z"/>
<path d="M3190 3680 c0 -5 5 -10 10 -10 6 0 10 5 10 10 0 6 -4 10 -10 10 -5 0
-10 -4 -10 -10z"/>
<path d="M2916 3662 c-8 -13 11 -35 23 -28 6 4 11 11 11 16 0 11 -28 21 -34
12z"/>
<path d="M2965 3590 c-4 -6 -3 -16 3 -22 6 -6 12 -6 17 2 4 6 3 16 -3 22 -6 6
-12 6 -17 -2z"/>
<path d="M2553 3571 c-10 -17 -8 -22 13 -36 14 -9 27 -15 28 -13 1 2 8 11 15
21 11 14 11 20 1 32 -17 21 -43 19 -57 -4z"/>
<path d="M2810 3531 c0 -6 5 -13 10 -16 6 -3 10 1 10 9 0 9 -4 16 -10 16 -5 0
-10 -4 -10 -9z"/>
<path d="M2733 3494 c-9 -23 13 -40 32 -24 12 10 13 16 4 26 -15 18 -28 18
-36 -2z"/>
<path d="M2986 3452 c-3 -6 -1 -14 5 -17 15 -10 25 3 12 16 -7 7 -13 7 -17 1z"/>
<path d="M2897 3361 c3 -12 11 -17 19 -14 18 7 13 27 -9 31 -11 2 -14 -2 -10
-17z"/>
<path d="M2844 3336 c-8 -22 3 -33 18 -18 9 9 9 15 0 24 -9 9 -13 7 -18 -6z"/>
<path d="M2662 3319 c-18 -28 -15 -37 23 -76 31 -32 37 -35 53 -22 41 34 58
38 76 21 15 -15 18 -15 26 -2 14 22 12 31 -9 37 -11 3 -21 15 -23 27 -2 17
-10 21 -38 22 -19 1 -37 3 -40 4 -23 11 -58 6 -68 -11z"/>
<path d="M2487 3280 c-6 -25 15 -44 31 -28 17 17 15 26 -7 37 -15 9 -20 7 -24
-9z"/>
<path d="M2570 3286 c0 -9 5 -16 10 -16 6 0 10 4 10 9 0 6 -4 13 -10 16 -5 3
-10 -1 -10 -9z"/>
<path d="M2414 3226 c-8 -22 3 -33 18 -18 9 9 9 15 0 24 -9 9 -13 7 -18 -6z"/>
<path d="M2744 3186 c-8 -22 3 -33 18 -18 9 9 9 15 0 24 -9 9 -13 7 -18 -6z"/>
<path d="M2485 3180 c-8 -13 4 -32 16 -25 12 8 12 35 0 35 -6 0 -13 -4 -16
-10z"/>
<path d="M2593 3165 c-12 -14 -23 -34 -25 -44 -4 -21 19 -51 38 -51 8 0 14 -5
14 -11 0 -17 42 -6 54 15 6 11 19 29 29 40 20 23 18 38 -7 42 -9 1 -28 9 -41
18 -32 21 -36 20 -62 -9z"/>
<path d="M2790 3175 c0 -8 7 -15 15 -15 8 0 15 7 15 15 0 8 -7 15 -15 15 -8 0
-15 -7 -15 -15z"/>
<path d="M2360 3100 c0 -5 7 -10 16 -10 8 0 12 5 9 10 -3 6 -10 10 -16 10 -5
0 -9 -4 -9 -10z"/>
<path d="M2235 3071 c-3 -5 -1 -12 5 -16 12 -7 30 2 30 16 0 12 -27 12 -35 0z"/>
<path d="M2052 3011 c-7 -4 -10 -15 -7 -23 4 -9 2 -19 -4 -23 -18 -11 18 -55
45 -55 35 0 65 34 60 66 -3 15 -7 28 -10 31 -8 9 -71 12 -84 4z"/>
<path d="M2240 2994 c0 -8 5 -12 10 -9 6 4 8 11 5 16 -9 14 -15 11 -15 -7z"/>
<path d="M2295 2970 c3 -5 10 -10 16 -10 5 0 9 5 9 10 0 6 -7 10 -16 10 -8 0
-12 -4 -9 -10z"/>
<path d="M3283 3323 c-7 -2 -13 -13 -13 -24 0 -12 -5 -16 -15 -13 -10 4 -15 0
-15 -15 0 -21 10 -27 24 -14 3 4 14 8 22 9 34 5 45 15 42 36 -3 23 -22 31 -45
21z"/>
<path d="M3190 3240 c-12 -8 -12 -10 3 -16 21 -8 35 2 21 16 -5 5 -15 6 -24 0z"/>
<path d="M3261 3187 c-6 -8 -8 -17 -4 -20 3 -4 0 -14 -7 -22 -10 -11 -10 -19
-2 -27 17 -17 39 -2 46 32 9 47 -8 66 -33 37z"/>
<path d="M3147 3173 c-2 -5 -3 -15 -2 -23 1 -8 3 -21 3 -29 1 -9 11 -12 27 -9
18 4 26 0 30 -13 8 -25 25 -24 25 1 0 11 -4 20 -10 20 -5 0 -10 9 -10 20 0 13
-10 24 -26 30 -30 12 -32 12 -37 3z"/>
<path d="M3006 3126 c-14 -22 -13 -25 4 -41 20 -18 34 -14 50 15 8 14 5 21
-14 34 -23 14 -25 14 -40 -8z"/>
<path d="M3143 3080 c-19 -8 -21 -13 -14 -32 6 -16 16 -22 32 -20 30 3 33 7
25 37 -7 27 -10 28 -43 15z"/>
<path d="M2992 2989 c-12 -18 -11 -24 1 -37 14 -13 14 -17 0 -38 -14 -23 -14
-24 7 -24 32 0 24 -52 -10 -60 -15 -4 -24 -13 -22 -21 2 -8 6 -23 8 -33 5 -28
16 -36 42 -30 18 5 21 12 17 38 -2 17 -2 26 1 20 3 -7 14 -10 25 -7 16 5 18
11 13 42 -8 45 -12 51 -30 51 -11 0 -12 4 -4 19 7 14 7 20 -1 23 -7 2 -7 12 2
31 11 24 10 30 -2 38 -22 14 -33 11 -47 -12z"/>
<path d="M3098 2971 c-21 -21 -17 -57 6 -53 9 2 16 -4 16 -13 0 -10 7 -15 18
-13 12 2 18 14 20 39 2 29 -1 37 -20 46 -18 8 -27 6 -40 -6z"/>
<path d="M3180 2967 c0 -19 10 -27 26 -20 11 4 12 9 3 19 -15 18 -29 18 -29 1z"/>
<path d="M3205 2930 c-4 -7 -1 -16 6 -21 17 -10 26 8 11 23 -6 6 -12 6 -17 -2z"/>
<path d="M2777 2876 c-3 -8 1 -20 9 -27 13 -10 17 -10 25 2 5 8 9 20 9 27 0
17 -37 15 -43 -2z"/>
<path d="M2862 2881 c-15 -9 -5 -74 12 -68 6 2 11 10 11 18 0 8 5 17 10 21 15
11 -17 39 -33 29z"/>
<path d="M2924 2869 c-11 -18 11 -32 25 -16 9 12 8 16 -3 20 -9 4 -18 1 -22
-4z"/>
<path d="M2572 2830 c-9 -14 -8 -21 4 -31 13 -10 17 -10 25 2 13 20 11 36 -4
42 -7 3 -19 -3 -25 -13z"/>
<path d="M3184 2839 c-11 -18 11 -32 25 -16 9 12 8 16 -3 20 -9 4 -18 1 -22
-4z"/>
<path d="M3104 2832 c-14 -9 -26 -59 -16 -66 4 -2 14 -1 22 5 8 5 11 9 6 9 -6
0 -1 6 10 14 17 13 17 16 4 30 -8 8 -20 12 -26 8z"/>
<path d="M2736 2793 c-14 -15 -5 -43 14 -43 13 0 20 7 20 19 0 19 -23 35 -34
24z"/>
<path d="M2881 2786 c-13 -15 -6 -56 8 -56 4 0 13 11 19 24 14 31 -8 56 -27
32z"/>
<path d="M2940 2780 c-12 -7 -12 -12 -3 -21 10 -10 14 -9 19 5 8 22 2 27 -16
16z"/>
<path d="M3100 2730 c0 -5 5 -10 10 -10 6 0 10 5 10 10 0 6 -4 10 -10 10 -5 0
-10 -4 -10 -10z"/>
<path d="M2753 2695 c1 -41 -7 -52 -27 -36 -19 16 -31 -1 -35 -46 -1 -15 -2
-15 -19 0 -19 17 -62 24 -62 10 1 -22 30 -44 49 -38 25 8 27 -7 5 -30 -21 -21
-3 -45 20 -26 7 6 18 11 22 10 12 -3 67 23 76 36 4 5 8 22 8 36 0 15 7 32 15
39 19 16 20 52 1 48 -8 -2 -15 1 -14 6 0 9 -22 26 -34 26 -3 0 -6 -16 -5 -35z"/>
<path d="M2393 2675 c-17 -19 -16 -32 3 -39 28 -11 43 -6 49 15 11 34 -28 52
-52 24z"/>
<path d="M2849 2669 c-8 -16 -8 -23 1 -29 17 -10 -3 -22 -24 -14 -12 4 -16 0
-16 -16 0 -17 4 -20 22 -15 16 6 20 4 15 -8 -3 -8 0 -18 8 -20 19 -8 26 2 19
28 -4 15 0 24 12 29 10 4 20 3 23 -1 3 -5 23 -9 43 -9 40 -2 61 22 30 33 -9 4
-20 12 -25 19 -4 7 -18 11 -32 9 -14 -1 -28 2 -31 6 -10 16 -33 9 -45 -12z"/>
<path d="M1736 2625 c-6 -17 9 -29 24 -20 14 9 12 22 -4 28 -8 3 -17 -1 -20
-8z"/>
<path d="M2276 2623 c-9 -9 -7 -41 3 -47 14 -9 41 4 41 20 0 15 -34 37 -44 27z"/>
<path d="M2446 2594 c-6 -16 0 -34 12 -34 18 1 32 18 26 33 -8 21 -30 22 -38
1z"/>
<path d="M2115 2581 c-31 -16 -40 -41 -19 -48 7 -2 19 3 28 12 9 9 20 14 25
11 5 -3 15 1 22 10 10 13 10 17 -2 25 -17 11 -17 11 -54 -10z"/>
<path d="M2900 2556 c0 -19 4 -23 20 -19 11 3 20 14 20 24 0 12 -7 19 -20 19
-14 0 -20 -7 -20 -24z"/>
<path d="M2607 2556 c-6 -16 19 -30 28 -16 7 11 -2 30 -15 30 -4 0 -10 -6 -13
-14z"/>
<path d="M2826 2544 c-3 -8 -2 -14 3 -14 4 0 6 -12 3 -26 -3 -20 -1 -25 9 -22
18 6 21 65 4 72 -8 2 -16 -2 -19 -10z"/>
<path d="M1722 2537 c-13 -15 -6 -27 14 -27 7 0 11 7 10 15 -3 22 -12 27 -24
12z"/>
<path d="M1787 2544 c-11 -11 5 -34 24 -34 12 0 19 7 19 20 0 19 -28 28 -43
14z"/>
<path d="M1950 2510 c0 -5 -9 -10 -20 -10 -35 0 -24 -37 19 -61 34 -19 38 -24
25 -36 -19 -19 -18 -30 5 -43 29 -15 39 -12 46 11 4 13 1 27 -10 39 -16 18
-16 21 -1 44 21 33 21 33 -14 51 -34 17 -50 19 -50 5z"/>
<path d="M2895 2510 c-7 -12 8 -42 21 -42 5 0 8 -4 7 -9 -2 -5 6 -9 17 -9 24
0 24 3 5 40 -15 30 -38 39 -50 20z"/>
<path d="M2985 2510 c-8 -13 4 -32 16 -25 12 8 12 35 0 35 -6 0 -13 -4 -16
-10z"/>
<path d="M2223 2483 c-13 -19 -14 -28 -5 -31 6 -2 12 -15 12 -29 0 -13 5 -23
11 -21 6 2 9 6 7 8 -1 3 7 19 19 36 l23 32 -25 16 c-23 15 -25 15 -42 -11z"/>
<path d="M2628 2479 c-10 -6 -18 -7 -18 -3 0 3 -7 1 -15 -6 -11 -9 -12 -17 -4
-32 6 -11 8 -26 5 -34 -3 -8 1 -14 8 -14 15 0 26 21 26 50 0 10 5 20 12 22 6
2 9 9 7 15 -3 8 -9 9 -21 2z"/>
<path d="M2107 2467 c-2 -7 -1 -37 4 -67 8 -49 7 -56 -11 -69 -24 -16 -26 -31
-5 -31 8 0 15 7 15 15 0 10 7 15 18 13 10 -2 17 3 17 12 0 8 7 21 17 27 23 18
16 59 -16 88 -31 29 -32 29 -39 12z"/>
<path d="M2742 2468 c-17 -17 -15 -35 5 -42 27 -11 43 23 20 43 -10 8 -17 7
-25 -1z"/>
<path d="M2520 2455 c0 -9 5 -15 11 -13 6 2 11 8 11 13 0 5 -5 11 -11 13 -6 2
-11 -4 -11 -13z"/>
<path d="M3025 2462 c-10 -11 -5 -42 8 -42 22 0 38 16 32 32 -6 14 -30 20 -40
10z"/>
<path d="M2690 2451 c0 -6 5 -13 10 -16 6 -3 10 1 10 9 0 9 -4 16 -10 16 -5 0
-10 -4 -10 -9z"/>
<path d="M2320 2441 c0 -5 -9 -7 -20 -4 -14 4 -20 0 -20 -11 0 -10 9 -16 24
-16 14 0 28 -5 31 -10 4 -7 13 -6 26 1 20 10 20 11 -2 30 -24 20 -39 24 -39
10z"/>
<path d="M1795 2423 c-30 -7 -38 -19 -32 -45 5 -18 13 -23 37 -22 17 0 38 8
46 16 13 13 14 19 2 37 -13 21 -17 22 -53 14z"/>
<path d="M2831 2411 c-10 -6 -10 -10 -1 -16 13 -8 24 -1 19 14 -3 6 -10 7 -18
2z"/>
<path d="M2903 2405 c-39 -16 -46 -57 -14 -75 26 -13 32 -13 60 9 22 17 23 19
7 49 -9 18 -18 32 -19 32 -1 -1 -17 -7 -34 -15z"/>
<path d="M2450 2400 c0 -5 -7 -10 -15 -10 -21 0 -30 -27 -15 -45 11 -13 15
-12 37 5 14 11 32 20 39 20 19 0 18 26 -2 34 -24 9 -44 7 -44 -4z"/>
<path d="M2685 2390 c-3 -5 -15 -10 -26 -10 -18 0 -27 -29 -13 -43 9 -9 64 25
64 40 0 16 -17 26 -25 13z"/>
<path d="M1891 2348 c-16 -43 27 -61 55 -23 12 15 11 20 -4 31 -25 20 -42 17
-51 -8z"/>
<path d="M2340 2361 c0 -6 5 -13 10 -16 6 -4 8 -11 4 -16 -8 -14 18 -69 33
-69 16 0 17 16 3 25 -6 4 -8 10 -5 15 3 5 1 11 -5 15 -6 4 -8 11 -5 16 4 5 0
16 -9 24 -17 17 -26 19 -26 6z"/>
<path d="M2566 2351 c-4 -5 -2 -12 3 -15 5 -4 12 -2 15 3 4 5 2 12 -3 15 -5 4
-12 2 -15 -3z"/>
<path d="M2788 2325 c-6 -13 -14 -22 -19 -20 -4 3 -16 -8 -25 -25 -22 -37 -27
-37 -52 -3 l-19 26 -13 -34 c-20 -54 -21 -69 -3 -76 10 -4 24 3 39 20 l23 27
34 -20 34 -20 17 24 c9 14 16 32 16 40 0 9 9 20 20 26 25 14 26 36 1 50 -30
15 -40 12 -53 -15z"/>
<path d="M2220 2310 c12 -23 40 -27 40 -6 0 8 -7 17 -16 20 -28 11 -35 7 -24
-14z"/>
<path d="M2470 2320 c0 -5 5 -10 10 -10 6 0 10 -6 9 -12 -3 -28 2 -38 21 -38
11 0 20 5 20 10 0 6 7 10 15 10 8 0 15 5 15 11 0 6 -6 9 -14 6 -8 -3 -17 -3
-21 1 -4 4 -12 7 -18 7 -7 1 -11 6 -9 13 1 7 -5 12 -13 12 -8 0 -15 -4 -15
-10z"/>
<path d="M2420 2298 c0 -7 7 -21 14 -31 19 -25 40 0 22 26 -15 20 -36 23 -36
5z"/>
<path d="M1848 2283 c-22 -6 -22 -13 -1 -62 16 -36 18 -38 45 -29 31 11 36 23
14 35 -8 4 -16 19 -18 32 -3 26 -12 31 -40 24z"/>
<path d="M2120 2273 c-26 -13 -34 -37 -12 -39 6 -1 15 -3 20 -4 4 -1 12 -1 17
0 6 1 21 3 35 4 18 1 26 7 28 25 3 22 1 23 -26 18 -17 -4 -32 -3 -34 1 -2 5
-14 2 -28 -5z"/>
<path d="M2027 2273 c-13 -12 -7 -23 13 -23 13 0 18 5 14 15 -7 16 -17 19 -27
8z"/>
<path d="M1722 2239 c-15 -24 -1 -49 29 -49 26 0 36 40 13 57 -24 17 -27 17
-42 -8z"/>
<path d="M2510 2234 c0 -8 -7 -22 -15 -30 -8 -9 -15 -20 -15 -25 0 -16 31 -23
40 -9 11 17 35 -27 31 -57 -3 -31 17 -29 29 2 5 14 14 25 19 25 4 0 9 12 9 28
0 31 -32 66 -53 59 -7 -3 -16 1 -19 9 -7 19 -26 18 -26 -2z"/>
<path d="M1993 2211 c-28 -24 -29 -34 -3 -26 22 7 24 2 10 -25 -13 -25 13 -48
35 -30 18 15 20 37 4 42 -9 3 -9 9 -1 25 9 17 9 22 -4 27 -19 7 -15 9 -41 -13z"/>
<path d="M2710 2195 c0 -8 7 -15 15 -15 8 0 15 7 15 15 0 8 -7 15 -15 15 -8 0
-15 -7 -15 -15z"/>
<path d="M2424 2185 c-7 -18 3 -35 21 -35 18 0 28 32 13 42 -19 11 -28 10 -34
-7z"/>
<path d="M2845 2190 c-7 -12 2 -30 16 -30 12 0 12 27 0 35 -5 3 -12 1 -16 -5z"/>
<path d="M2784 2174 c3 -9 6 -29 6 -45 0 -16 4 -29 9 -29 14 0 21 43 10 57 -6
6 -8 17 -4 23 3 5 -1 10 -10 10 -12 0 -15 -5 -11 -16z"/>
<path d="M1822 2162 c-20 -3 -23 -8 -17 -30 9 -35 8 -34 39 -26 29 7 30 11 13
39 -8 13 -20 19 -35 17z"/>
<path d="M1898 2158 c-3 -7 0 -25 6 -41 12 -32 39 -32 44 1 2 12 7 22 12 22 5
0 7 6 4 13 -6 17 -61 21 -66 5z"/>
<path d="M2593 2104 c-8 -22 12 -40 30 -25 8 6 22 9 31 5 9 -3 16 -1 16 5 0 6
-9 11 -19 11 -11 0 -23 5 -26 10 -9 15 -25 12 -32 -6z"/>
<path d="M1771 2101 c-8 -5 -11 -16 -8 -24 3 -8 1 -19 -5 -25 -8 -8 -8 -15 1
-26 14 -17 41 -11 41 10 0 8 5 14 10 14 15 0 12 29 -4 46 -17 16 -17 16 -35 5z"/>
<path d="M1992 2097 c-24 -11 -29 -36 -11 -54 9 -9 19 -8 40 3 53 27 25 75
-29 51z"/>
<path d="M2691 2091 c-10 -6 -10 -10 -1 -16 13 -8 24 -1 19 14 -3 6 -10 7 -18
2z"/>
<path d="M1935 2040 c-3 -5 1 -10 9 -10 9 0 16 5 16 10 0 6 -4 10 -9 10 -6 0
-13 -4 -16 -10z"/>
<path d="M2601 2041 c-24 -15 -5 -44 24 -37 19 5 23 3 19 -8 -8 -21 33 -41 52
-25 21 18 17 43 -11 55 -18 9 -25 9 -29 0 -3 -7 -10 -5 -19 7 -16 20 -17 20
-36 8z"/>
<path d="M1940 1992 c0 -10 7 -19 15 -19 8 0 15 9 15 19 0 10 -7 18 -15 18 -8
0 -15 -8 -15 -18z"/>
<path d="M1830 1975 c0 -8 7 -15 15 -15 8 0 15 7 15 15 0 8 -7 15 -15 15 -8 0
-15 -7 -15 -15z"/>
<path d="M2717 1984 c-10 -11 5 -34 22 -34 23 0 31 9 24 26 -5 14 -34 19 -46
8z"/>
<path d="M1971 1931 c-7 -12 -6 -22 2 -30 9 -9 7 -13 -10 -17 -17 -5 -20 -10
-13 -32 7 -29 33 -32 59 -7 11 11 12 17 2 29 -9 10 -9 20 -2 33 7 15 5 22 -9
31 -16 10 -21 9 -29 -7z"/>
<path d="M1830 1864 c0 -14 3 -14 15 -4 8 7 15 14 15 16 0 2 -7 4 -15 4 -8 0
-15 -7 -15 -16z"/>
<path d="M2013 1813 c-17 -6 -16 -28 1 -42 21 -17 45 15 25 33 -8 8 -20 12
-26 9z"/>
<path d="M2092 1739 c-16 -25 -15 -44 2 -58 12 -10 19 -8 36 9 17 17 24 19 36
9 11 -9 18 -9 26 -1 15 15 1 44 -19 40 -10 -3 -30 1 -44 8 -22 11 -27 10 -37
-7z"/>
<path d="M1103 1371 c-8 -13 -8 -22 -1 -29 20 -20 2 -39 -31 -34 -36 5 -49
-15 -32 -47 9 -16 16 -19 35 -11 13 5 33 6 44 3 14 -3 24 2 32 18 11 19 10 25
-7 39 -15 12 -17 19 -9 33 8 12 7 20 -4 32 -14 13 -17 13 -27 -4z"/>
<path d="M1460 1359 c-8 -15 -7 -21 4 -25 19 -7 36 3 36 21 0 22 -29 26 -40 4z"/>
<path d="M1196 1343 c-7 -17 9 -33 32 -33 18 0 15 37 -4 44 -21 8 -21 8 -28
-11z"/>
<path d="M1266 1351 c-4 -7 -5 -15 -2 -18 9 -9 19 4 14 18 -4 11 -6 11 -12 0z"/>
<path d="M1341 1351 c-6 -4 -9 -15 -6 -23 4 -9 2 -19 -4 -22 -7 -5 -7 -15 -1
-32 6 -14 8 -29 5 -34 -3 -4 2 -13 9 -20 12 -9 17 -7 26 10 6 11 15 18 20 15
13 -8 49 34 45 53 -2 9 -4 22 -4 28 -2 21 -67 39 -90 25z"/>
<path d="M1190 1274 c0 -9 5 -14 12 -12 18 6 21 28 4 28 -9 0 -16 -7 -16 -16z"/>
<path d="M983 1245 c-7 -20 0 -27 20 -19 9 3 13 12 10 20 -7 19 -22 18 -30 -1z"/>
<path d="M1624 1236 c-8 -22 -2 -27 16 -16 12 7 12 12 3 21 -10 10 -14 9 -19
-5z"/>
<path d="M1095 1209 c-10 -15 1 -23 20 -15 9 3 13 10 10 16 -8 13 -22 13 -30
-1z"/>
<path d="M1565 1201 c-7 -12 12 -24 25 -16 11 7 4 25 -10 25 -5 0 -11 -4 -15
-9z"/>
<path d="M1390 1190 c0 -5 9 -19 20 -30 11 -11 20 -27 20 -36 0 -10 4 -12 13
-7 12 8 17 9 37 12 7 1 7 7 1 19 -5 9 -11 21 -13 27 -1 5 -13 8 -25 7 -13 -2
-23 1 -23 7 0 6 -7 11 -15 11 -8 0 -15 -4 -15 -10z"/>
<path d="M1223 1178 c-18 -24 -22 -47 -9 -57 17 -14 38 -6 54 20 22 34 -21 68
-45 37z"/>
<path d="M1290 1144 c0 -8 5 -12 10 -9 6 3 10 10 10 16 0 5 -4 9 -10 9 -5 0
-10 -7 -10 -16z"/>
<path d="M1531 1136 c-9 -10 -8 -16 4 -26 21 -17 51 6 34 26 -6 8 -15 14 -19
14 -4 0 -13 -6 -19 -14z"/>
<path d="M3825 4250 c-8 -13 4 -32 16 -25 12 8 12 35 0 35 -6 0 -13 -4 -16
-10z"/>
<path d="M4220 4215 c-12 -14 -11 -18 1 -26 20 -12 34 -6 34 16 0 24 -19 30
-35 10z"/>
<path d="M4122 4158 l-23 -42 23 -18 c36 -28 87 -50 99 -42 6 3 8 15 5 26 -2
11 2 31 10 43 15 22 14 25 -23 49 -21 14 -44 26 -53 26 -8 0 -25 -19 -38 -42z"/>
<path d="M4695 4190 c-4 -7 -1 -16 6 -21 17 -10 26 8 11 23 -6 6 -12 6 -17 -2z"/>
<path d="M3870 4161 c0 -26 17 -36 35 -21 18 15 8 40 -16 40 -12 0 -19 -7 -19
-19z"/>
<path d="M3807 4163 c-12 -11 -8 -23 8 -23 8 0 15 7 15 15 0 16 -12 20 -23 8z"/>
<path d="M4008 4119 c-19 -11 -14 -39 7 -39 19 0 28 17 18 34 -6 10 -13 12
-25 5z"/>
<path d="M4720 4100 c0 -5 5 -10 10 -10 6 0 10 5 10 10 0 6 -4 10 -10 10 -5 0
-10 -4 -10 -10z"/>
<path d="M4785 4081 c-3 -5 -1 -12 5 -16 5 -3 10 1 10 9 0 18 -6 21 -15 7z"/>
<path d="M4400 4051 c0 -26 27 -34 40 -12 7 14 6 20 -6 25 -26 10 -34 7 -34
-13z"/>
<path d="M3853 4044 c-7 -3 -8 -15 -4 -32 6 -21 13 -26 32 -24 31 5 31 5 23
36 -6 25 -23 31 -51 20z"/>
<path d="M4062 4038 c-19 -19 -14 -44 13 -56 15 -7 25 -8 25 -2 0 6 9 1 20
-10 25 -25 37 -25 50 1 16 29 -5 52 -39 44 -14 -4 -23 -3 -19 1 4 4 0 13 -10
20 -21 17 -25 17 -40 2z"/>
<path d="M4767 4014 c-9 -10 2 -24 19 -24 8 0 14 7 14 15 0 15 -21 21 -33 9z"/>
<path d="M3978 3974 c-10 -21 -9 -27 3 -35 22 -14 37 -11 49 12 9 17 8 23 -7
35 -25 19 -32 17 -45 -12z"/>
<path d="M4333 3966 c-19 -30 -20 -36 -7 -47 8 -7 13 -18 10 -25 -7 -18 14
-30 24 -13 6 8 2 18 -8 26 -9 7 -14 13 -9 14 4 1 12 3 17 4 6 1 14 3 19 4 20
2 23 42 4 56 -25 19 -25 19 -50 -19z"/>
<path d="M4420 3990 c-8 -5 -11 -12 -7 -16 4 -4 2 -12 -3 -19 -7 -8 -2 -15 17
-24 28 -13 39 -7 45 23 4 23 -32 49 -52 36z"/>
<path d="M3805 3980 c-7 -12 2 -30 16 -30 12 0 12 27 0 35 -5 3 -12 1 -16 -5z"/>
<path d="M4650 3981 c0 -6 5 -13 10 -16 6 -3 10 1 10 9 0 9 -4 16 -10 16 -5 0
-10 -4 -10 -9z"/>
<path d="M3640 3940 c0 -5 4 -10 9 -10 6 0 13 5 16 10 3 6 -1 10 -9 10 -9 0
-16 -4 -16 -10z"/>
<path d="M3743 3913 c-17 -6 -16 -30 0 -36 21 -8 39 7 31 26 -6 18 -10 19 -31
10z"/>
<path d="M4525 3910 c-7 -12 2 -30 16 -30 12 0 12 27 0 35 -5 3 -12 1 -16 -5z"/>
<path d="M3918 3905 c-3 -3 -3 -17 0 -30 3 -17 11 -25 25 -25 11 0 26 -8 33
-17 20 -28 28 -7 11 29 -9 18 -13 36 -11 40 6 9 -49 11 -58 3z"/>
<path d="M4110 3896 c0 -9 7 -16 16 -16 17 0 14 22 -4 28 -7 2 -12 -3 -12 -12z"/>
<path d="M4220 3900 c-10 -6 -11 -13 -5 -19 6 -6 16 -7 25 -1 10 6 11 13 5 19
-6 6 -16 7 -25 1z"/>
<path d="M4266 3902 c-2 -4 -1 -14 4 -21 10 -17 31 -5 23 14 -6 16 -19 20 -27
7z"/>
<path d="M4595 3861 c-7 -12 12 -24 25 -16 11 7 4 25 -10 25 -5 0 -11 -4 -15
-9z"/>
<path d="M3815 3850 c-10 -17 12 -37 25 -24 8 8 6 15 -4 23 -10 9 -16 9 -21 1z"/>
<path d="M4230 3847 c-14 -7 -31 -16 -37 -20 -15 -10 -6 -37 13 -37 8 0 14
-10 14 -25 0 -29 28 -45 40 -24 5 7 7 16 4 21 -7 11 35 30 55 23 12 -3 21 0
24 9 8 19 -13 33 -23 16 -6 -9 -13 -4 -24 19 -18 33 -27 36 -66 18z"/>
<path d="M4087 3832 c-19 -21 -22 -42 -7 -42 7 0 7 -6 0 -20 -8 -16 -7 -22 10
-32 11 -7 20 -21 20 -30 0 -23 15 -23 37 0 10 11 27 22 37 26 25 9 12 20 -25
22 -39 2 -46 10 -30 36 11 18 10 23 -6 40 -19 18 -20 18 -36 0z"/>
<path d="M4398 3819 c-10 -6 -18 -16 -18 -24 0 -7 -9 -17 -20 -20 -11 -4 -20
-15 -20 -26 0 -13 4 -18 11 -13 7 4 24 7 38 8 20 1 27 8 35 34 11 38 0 56 -26
41z"/>
<path d="M4508 3813 c-11 -13 -10 -18 3 -26 14 -9 14 -12 -3 -29 -10 -10 -24
-18 -32 -18 -23 0 -25 -12 -11 -48 15 -35 22 -38 60 -20 20 9 25 17 21 34 -4
13 -2 26 4 29 6 4 7 13 1 24 -6 10 -8 27 -5 38 7 26 -20 37 -38 16z"/>
<path d="M3767 3814 c-5 -5 -31 -12 -53 -13 -13 -1 -16 -49 -3 -56 4 -3 19 -3
32 0 18 5 23 12 20 26 -4 14 -1 18 10 14 8 -4 17 0 20 9 6 14 -16 30 -26 20z"/>
<path d="M4445 3790 c3 -5 10 -10 16 -10 5 0 9 5 9 10 0 6 -7 10 -16 10 -8 0
-12 -4 -9 -10z"/>
<path d="M4020 3775 c0 -8 7 -15 15 -15 8 0 15 7 15 15 0 8 -7 15 -15 15 -8 0
-15 -7 -15 -15z"/>
<path d="M3620 3761 c-25 -7 -27 -14 -16 -66 2 -11 8 -19 14 -18 5 1 8 -7 5
-18 -6 -20 10 -39 33 -39 15 0 36 48 23 55 -5 4 -6 12 -2 18 10 16 3 60 -11
69 -12 9 -12 9 -46 -1z"/>
<path d="M3899 3748 c-7 -13 -18 -29 -26 -36 -26 -26 -15 -39 35 -40 45 -1 49
1 60 30 6 18 11 32 9 33 -1 1 -14 9 -29 18 -34 21 -35 21 -49 -5z"/>
<path d="M4208 3683 c-25 -30 -6 -93 28 -93 18 0 28 -20 16 -32 -13 -13 -4
-38 14 -38 16 0 37 44 36 72 0 11 6 17 16 15 9 -1 17 3 17 8 0 6 -6 9 -12 9
-13 -2 -17 9 -14 32 4 31 -79 53 -101 27z"/>
<path d="M4132 3678 c-15 -15 -3 -38 19 -38 12 0 19 7 19 19 0 22 -23 34 -38
19z"/>
<path d="M3532 3648 c-13 -16 -4 -35 18 -39 27 -5 61 12 58 29 -4 21 -60 28
-76 10z"/>
<path d="M3791 3651 c-12 -8 -12 -11 0 -23 18 -19 39 -12 39 13 0 20 -16 24
-39 10z"/>
<path d="M4496 3629 c-17 -25 -12 -45 14 -52 13 -3 24 3 34 18 14 22 14 24 -9
39 -22 15 -25 14 -39 -5z"/>
<path d="M4025 3631 c-6 -11 9 -23 19 -14 9 9 7 23 -3 23 -6 0 -12 -4 -16 -9z"/>
<path d="M3978 3604 c-12 -11 5 -44 23 -44 14 0 19 7 19 25 0 18 -5 25 -18 25
-10 0 -21 -3 -24 -6z"/>
<path d="M4160 3591 c0 -5 5 -13 10 -16 6 -3 10 -2 10 4 0 5 -4 13 -10 16 -5
3 -10 2 -10 -4z"/>
<path d="M3792 3569 c2 -17 11 -23 37 -26 38 -4 57 13 39 34 -6 7 -26 13 -45
13 -29 0 -34 -3 -31 -21z"/>
<path d="M3678 3562 c-8 -9 -5 -18 10 -33 12 -11 22 -26 22 -34 0 -12 6 -12
35 -2 38 13 39 15 30 56 -6 26 -10 29 -46 27 -22 0 -45 -7 -51 -14z"/>
<path d="M4096 3573 c-11 -11 -6 -23 9 -23 8 0 15 4 15 9 0 13 -16 22 -24 14z"/>
<path d="M3917 3551 c-6 -24 15 -44 40 -39 12 2 18 12 18 28 0 33 -49 42 -58
11z"/>
<path d="M4206 3551 c-4 -5 -2 -12 3 -15 5 -4 12 -2 15 3 4 5 2 12 -3 15 -5 4
-12 2 -15 -3z"/>
<path d="M4426 3528 c-15 -21 -15 -24 0 -35 15 -11 15 -15 -4 -47 -19 -33 -19
-35 -3 -50 10 -9 21 -16 26 -16 5 0 16 -7 24 -14 20 -18 31 -12 61 38 23 38
23 39 4 53 -10 8 -19 19 -19 25 0 6 -8 14 -18 17 -10 4 -17 11 -15 15 2 5 -7
15 -19 23 -19 13 -23 12 -37 -9z"/>
<path d="M3622 3524 c3 -17 21 -21 26 -6 1 5 -4 12 -13 16 -11 4 -15 1 -13
-10z"/>
<path d="M4002 3526 c1 -10 8 -17 13 -17 15 1 12 24 -3 29 -9 3 -13 -2 -10
-12z"/>
<path d="M4047 3495 c-4 -8 -3 -16 1 -19 13 -8 35 11 28 23 -10 15 -23 14 -29
-4z"/>
<path d="M4330 3485 c0 -8 7 -15 15 -15 8 0 15 7 15 15 0 8 -7 15 -15 15 -8 0
-15 -7 -15 -15z"/>
<path d="M3569 3469 c-8 -15 -8 -24 0 -32 7 -7 7 -14 0 -24 -16 -18 -4 -43 21
-43 15 0 20 7 20 28 0 16 6 37 14 47 12 17 12 21 -3 32 -24 18 -39 16 -52 -8z"/>
<path d="M4079 3448 c-10 -18 -8 -24 7 -35 24 -17 27 -17 42 8 10 16 10 24 1
35 -17 20 -37 17 -50 -8z"/>
<path d="M4275 3451 c-3 -5 -1 -12 5 -16 12 -7 30 2 30 16 0 12 -27 12 -35 0z"/>
<path d="M3636 3424 c-8 -29 -3 -39 13 -29 13 8 15 55 2 55 -5 0 -12 -12 -15
-26z"/>
<path d="M3750 3435 c0 -8 7 -15 15 -15 8 0 15 7 15 15 0 8 -7 15 -15 15 -8 0
-15 -7 -15 -15z"/>
<path d="M3707 3423 c-11 -10 -8 -43 3 -43 6 0 10 11 10 25 0 26 -2 29 -13 18z"/>
<path d="M3957 3414 c-8 -8 1 -24 13 -24 4 0 10 7 14 15 5 15 -14 21 -27 9z"/>
<path d="M3761 3396 c-9 -10 -8 -16 4 -26 19 -16 41 1 32 24 -8 20 -21 20 -36
2z"/>
<path d="M3824 3386 c-8 -21 16 -40 30 -26 7 7 4 16 -7 27 -15 15 -17 15 -23
-1z"/>
<path d="M4175 3390 c3 -5 10 -10 16 -10 5 0 9 5 9 10 0 6 -7 10 -16 10 -8 0
-12 -4 -9 -10z"/>
<path d="M4037 3366 c-15 -12 -16 -18 -7 -35 12 -23 27 -26 49 -12 12 8 13 14
3 35 -13 29 -20 31 -45 12z"/>
<path d="M4357 3365 c-22 -16 -21 -28 1 -49 18 -15 20 -15 36 2 29 33 -2 73
-37 47z"/>
<path d="M3696 3355 c-7 -19 11 -48 25 -39 12 7 11 17 -4 38 -13 18 -14 18
-21 1z"/>
<path d="M3980 3341 c0 -5 -12 -12 -26 -15 -15 -4 -24 -12 -21 -19 3 -7 -1
-21 -9 -32 -10 -13 -11 -22 -3 -32 14 -16 45 -17 54 -2 4 5 17 14 30 19 15 6
22 15 20 27 -2 10 -4 23 -4 30 -1 14 -41 38 -41 24z"/>
<path d="M3829 3340 c0 -3 -2 -15 -5 -27 -2 -13 1 -23 6 -23 16 0 24 30 11 43
-6 6 -11 9 -12 7z"/>
<path d="M4145 3324 c-23 -23 -18 -43 11 -50 41 -11 60 31 24 53 -15 10 -22
10 -35 -3z"/>
<path d="M3571 3316 c-7 -8 -8 -17 -3 -20 6 -3 15 1 21 8 7 8 8 17 3 20 -6 3
-15 -1 -21 -8z"/>
<path d="M3895 3317 c-3 -9 -7 -24 -10 -32 -2 -8 2 -15 9 -15 8 0 16 10 20 22
6 27 -11 50 -19 25z"/>
<path d="M3772 3293 c-15 -6 -6 -23 14 -23 8 0 14 7 14 15 0 15 -6 17 -28 8z"/>
<path d="M3732 3223 c2 -22 8 -28 28 -28 20 0 25 5 25 25 0 20 -6 26 -28 28
-26 3 -28 1 -25 -25z"/>
<path d="M3905 3210 c-7 -12 2 -30 16 -30 12 0 12 27 0 35 -5 3 -12 1 -16 -5z"/>
<path d="M3976 3211 c-10 -16 5 -41 25 -41 19 0 43 33 32 44 -10 9 -51 7 -57
-3z"/>
<path d="M4107 3198 c-15 -12 -15 -15 1 -36 16 -21 19 -21 40 -7 18 13 20 20
12 36 -12 22 -29 24 -53 7z"/>
<path d="M4422 3198 c-16 -16 -15 -26 4 -45 14 -15 17 -14 36 5 18 17 19 23 8
36 -15 19 -32 20 -48 4z"/>
<path d="M3834 3175 c-7 -18 3 -35 20 -35 20 0 27 38 9 44 -21 8 -23 8 -29 -9z"/>
<path d="M3727 3167 c-17 -12 -15 -47 2 -47 20 1 31 18 24 38 -7 19 -11 21
-26 9z"/>
<path d="M3527 3130 c3 -11 14 -20 24 -20 12 0 19 7 19 20 0 14 -7 20 -24 20
-19 0 -23 -4 -19 -20z"/>
<path d="M4006 3118 c-11 -16 -13 -25 -4 -35 15 -19 41 -16 55 6 10 16 9 22
-12 35 -23 15 -25 14 -39 -6z"/>
<path d="M3721 3091 c-12 -21 -5 -31 21 -31 19 0 22 8 12 34 -8 21 -21 20 -33
-3z"/>
<path d="M3950 3095 c-13 -15 -7 -45 8 -45 21 0 30 25 17 43 -11 15 -14 15
-25 2z"/>
<path d="M3645 3032 c-9 -23 11 -38 30 -22 9 7 14 18 12 23 -5 17 -35 16 -42
-1z"/>
<path d="M3799 2998 c-1 -7 -1 -16 0 -20 0 -5 -4 -8 -10 -8 -6 0 -9 -9 -6 -20
3 -12 -1 -24 -11 -29 -8 -5 -16 -15 -18 -23 -1 -8 -14 -34 -29 -58 l-28 -44
24 -18 c13 -10 29 -22 36 -28 23 -19 42 -10 67 33 l26 42 -25 20 c-32 26 -32
52 -1 67 21 9 24 16 20 42 -9 49 -12 56 -29 56 -8 0 -16 -6 -16 -12z"/>
<path d="M3500 2947 c0 -19 10 -27 26 -20 11 4 12 9 3 19 -15 18 -29 18 -29 1z"/>
<path d="M3579 2863 c-12 -3 -15 -11 -11 -26 7 -28 19 -36 44 -29 14 3 18 12
16 31 -3 26 -18 33 -49 24z"/>
<path d="M3426 2767 c-15 -21 -16 -30 -6 -42 6 -8 9 -23 5 -34 -10 -32 2 -41
34 -25 33 16 47 42 31 58 -5 5 -10 18 -10 28 0 10 -6 18 -14 18 -8 0 -16 6
-18 12 -3 8 -12 1 -22 -15z"/>
<path d="M3663 2730 c-24 -10 -27 -18 -17 -44 7 -19 38 -21 52 -3 8 10 0 59
-10 56 -2 0 -13 -4 -25 -9z"/>
<path d="M3440 2630 c-12 -17 -26 -28 -31 -25 -5 4 -9 -4 -9 -15 0 -16 4 -20
16 -16 9 4 27 0 40 -9 22 -14 25 -14 44 5 31 31 25 56 -17 78 -19 11 -24 8
-43 -18z"/>
<path d="M3601 2550 c-17 -10 -7 -40 13 -40 7 0 16 6 19 14 8 19 -15 37 -32
26z"/>
<path d="M3573 2407 c-9 -19 -8 -26 8 -35 26 -16 32 -15 47 9 11 18 11 23 -5
35 -26 19 -38 17 -50 -9z"/>
<path d="M3342 2399 c-36 -23 -36 -23 -23 -47 5 -9 12 -25 15 -36 6 -18 7 -18
34 0 37 24 56 44 48 51 -3 3 -1 12 5 19 14 18 2 39 -15 25 -8 -7 -16 -7 -22
-1 -6 6 -22 1 -42 -11z"/>
<path d="M1380 2313 c0 -18 5 -24 18 -21 9 2 17 12 17 22 0 11 -8 20 -17 22
-13 2 -18 -5 -18 -23z"/>
<path d="M1194 2305 c-6 -15 2 -35 14 -35 18 1 32 18 26 33 -8 21 -33 22 -40
2z"/>
<path d="M3417 2283 c-11 -10 -8 -20 8 -27 10 -4 15 1 15 14 0 20 -11 26 -23
13z"/>
<path d="M3574 2276 c-8 -22 3 -33 18 -18 9 9 9 15 0 24 -9 9 -13 7 -18 -6z"/>
<path d="M1405 2260 c-7 -12 2 -30 16 -30 12 0 12 27 0 35 -5 3 -12 1 -16 -5z"/>
<path d="M3370 2240 c-12 -7 -12 -12 -3 -21 10 -10 14 -9 19 5 8 22 2 27 -16
16z"/>
<path d="M827 2214 c-15 -14 -27 -35 -27 -45 0 -22 -7 -23 -40 -4 -37 21 -53
18 -87 -15 -26 -26 -30 -36 -27 -71 4 -43 24 -88 47 -107 8 -7 47 -23 87 -37
41 -14 84 -32 97 -40 18 -12 24 -13 27 -3 18 61 41 111 59 125 18 15 22 27 20
76 -1 49 1 57 17 57 16 0 30 18 30 41 0 5 -10 14 -22 18 -17 7 -26 5 -35 -7
-12 -14 -15 -13 -36 6 -38 36 -78 38 -110 6z"/>
<path d="M3256 2172 c-4 -12 -12 -22 -18 -22 -5 0 -7 -7 -4 -16 4 -10 -1 -25
-10 -36 -16 -17 -16 -19 2 -33 54 -41 130 5 102 63 -7 15 -19 27 -25 27 -7 0
-19 9 -26 19 -14 19 -15 19 -21 -2z"/>
<path d="M1030 2135 c0 -8 7 -15 15 -15 8 0 15 7 15 15 0 8 -7 15 -15 15 -8 0
-15 -7 -15 -15z"/>
<path d="M550 2125 c-26 -31 18 -71 47 -43 12 13 13 19 1 37 -15 25 -31 27
-48 6z"/>
<path d="M1346 2121 c-22 -24 -21 -51 3 -51 13 0 20 9 23 30 6 38 -4 45 -26
21z"/>
<path d="M1100 2120 c0 -5 5 -10 10 -10 6 0 10 5 10 10 0 6 -4 10 -10 10 -5 0
-10 -4 -10 -10z"/>
<path d="M1230 2100 c0 -19 11 -26 23 -14 8 8 -3 34 -14 34 -5 0 -9 -9 -9 -20z"/>
<path d="M1105 2050 c4 -6 11 -8 16 -5 14 9 11 15 -7 15 -8 0 -12 -5 -9 -10z"/>
<path d="M1225 2031 c-6 -11 9 -23 19 -14 9 9 7 23 -3 23 -6 0 -12 -4 -16 -9z"/>
<path d="M1167 2016 c-3 -8 0 -17 8 -19 17 -7 25 1 18 19 -7 18 -19 18 -26 0z"/>
<path d="M1285 2009 c-10 -15 3 -25 16 -12 7 7 7 13 1 17 -6 3 -14 1 -17 -5z"/>
<path d="M1380 2002 c0 -25 7 -31 29 -25 13 3 17 11 14 24 -7 25 -43 25 -43 1z"/>
<path d="M3081 1992 c-7 -14 -5 -21 9 -30 16 -10 20 -8 25 8 12 37 -16 55 -34
22z"/>
<path d="M472 1949 c-12 -18 -11 -24 1 -37 18 -17 45 -10 54 14 4 11 -1 22
-12 30 -25 18 -28 18 -43 -7z"/>
<path d="M1235 1942 c-10 -10 -5 -58 7 -70 9 -9 9 -15 1 -23 -14 -14 3 -53 35
-82 18 -17 21 -17 36 -2 17 17 22 45 8 45 -12 0 -47 62 -48 85 -1 11 -2 27 -3
36 -1 15 -25 22 -36 11z"/>
<path d="M1046 1921 c-9 -14 4 -41 19 -41 18 0 26 15 19 34 -7 17 -29 21 -38
7z"/>
<path d="M720 1900 c0 -5 5 -10 10 -10 6 0 10 5 10 10 0 6 -4 10 -10 10 -5 0
-10 -4 -10 -10z"/>
<path d="M655 1876 c-18 -14 -19 -16 -4 -31 14 -14 17 -14 28 -1 8 9 9 21 4
31 -8 13 -11 13 -28 1z"/>
<path d="M3031 1881 c-8 -5 -11 -16 -8 -25 7 -18 16 -20 37 -6 13 8 13 11 0
24 -10 10 -20 12 -29 7z"/>
<path d="M925 1845 c-23 -19 -27 -27 -17 -37 6 -6 12 -8 12 -4 0 5 6 3 14 -3
16 -13 42 -6 50 14 3 8 -3 23 -12 34 -17 20 -17 20 -47 -4z"/>
<path d="M825 1808 c-14 -21 -14 -24 0 -34 19 -14 19 -24 0 -24 -8 0 -15 -7
-15 -15 0 -8 7 -15 15 -15 8 0 15 6 15 13 0 6 12 23 25 36 26 24 25 35 -5 51
-15 8 -22 5 -35 -12z"/>
<path d="M1123 1823 c-9 -3 -10 -10 -3 -24 9 -16 15 -17 31 -8 16 8 18 13 8
25 -12 15 -16 16 -36 7z"/>
<path d="M1343 1814 c-9 -23 13 -40 32 -24 12 10 13 16 4 26 -15 18 -28 18
-36 -2z"/>
<path d="M1486 1775 c4 -8 7 -15 9 -15 2 0 5 7 9 15 3 9 0 15 -9 15 -9 0 -12
-6 -9 -15z"/>
<path d="M1048 1763 c-11 -13 -9 -18 10 -31 12 -8 22 -21 22 -28 0 -8 7 -14
15 -14 8 0 15 7 15 15 0 8 -7 15 -15 15 -11 0 -14 7 -9 24 7 29 -18 42 -38 19z"/>
<path d="M1210 1750 c-9 -17 -8 -20 10 -20 11 0 20 6 20 14 0 24 -18 28 -30 6z"/>
<path d="M1340 1761 c0 -6 5 -13 10 -16 6 -3 10 1 10 9 0 9 -4 16 -10 16 -5 0
-10 -4 -10 -9z"/>
<path d="M880 1745 c0 -8 7 -15 15 -15 8 0 15 7 15 15 0 8 -7 15 -15 15 -8 0
-15 -7 -15 -15z"/>
<path d="M2867 1740 c-8 -29 13 -50 41 -39 23 9 26 17 16 43 -9 23 -51 20 -57
-4z"/>
<path d="M405 1734 c-19 -19 -19 -22 1 -41 13 -13 19 -14 39 -3 20 11 22 16
12 31 -16 26 -34 31 -52 13z"/>
<path d="M735 1738 c-28 -15 -28 -14 -20 -37 4 -15 15 -21 35 -21 34 0 43 19
21 48 -13 17 -20 19 -36 10z"/>
<path d="M1409 1734 c-6 -8 -9 -17 -6 -20 8 -8 47 5 47 16 0 15 -29 19 -41 4z"/>
<path d="M1547 1744 c-3 -3 -3 -12 0 -20 4 -11 9 -12 19 -3 8 6 14 15 14 20 0
10 -24 12 -33 3z"/>
<path d="M950 1730 c0 -5 7 -10 16 -10 8 0 12 5 9 10 -3 6 -10 10 -16 10 -5 0
-9 -4 -9 -10z"/>
<path d="M1197 1702 c-10 -10 -17 -24 -17 -31 0 -7 -4 -10 -9 -7 -10 7 -24
-22 -16 -33 8 -14 -30 -8 -48 7 -13 12 -20 13 -29 4 -9 -9 -8 -12 5 -12 10 0
17 -8 17 -20 0 -27 22 -25 58 5 17 14 39 25 50 25 11 0 27 6 34 13 7 8 18 12
24 10 14 -5 26 35 12 43 -5 3 -15 -2 -22 -11 -12 -17 -13 -17 -19 4 -6 26 -19
27 -40 3z"/>
<path d="M2695 1711 c-7 -12 12 -24 25 -16 11 7 4 25 -10 25 -5 0 -11 -4 -15
-9z"/>
<path d="M580 1688 c0 -11 5 -18 13 -16 18 7 20 35 2 35 -8 0 -15 -9 -15 -19z"/>
<path d="M1490 1690 c0 -5 5 -10 10 -10 6 0 10 5 10 10 0 6 -4 10 -10 10 -5 0
-10 -4 -10 -10z"/>
<path d="M192 1667 c-27 -29 -28 -61 -3 -84 82 -77 95 -85 104 -60 3 9 12 8
36 -5 30 -16 31 -16 46 5 13 19 13 23 -2 39 -10 11 -12 18 -4 18 6 0 16 11 21
24 6 17 14 23 28 19 25 -6 36 21 15 38 -13 11 -17 10 -28 -5 -13 -16 -14 -16
-20 3 -8 28 -40 35 -75 18 -22 -12 -32 -12 -39 -3 -17 20 -57 17 -79 -7z"/>
<path d="M850 1670 c-6 -11 -18 -20 -26 -20 -8 0 -12 -5 -9 -11 4 -5 12 -8 18
-6 7 2 20 0 31 -5 15 -8 24 -4 43 17 28 30 26 37 -17 42 -21 2 -32 -3 -40 -17z"/>
<path d="M1609 1675 c-2 -24 -4 -29 -13 -43 -5 -9 -2 -18 10 -27 27 -19 50 -6
46 27 -1 3 5 9 13 12 19 7 30 -13 16 -27 -6 -6 -11 -19 -11 -29 0 -10 -11 -28
-25 -40 -19 -16 -22 -25 -14 -40 8 -15 14 -16 31 -7 17 9 24 7 46 -16 19 -21
27 -24 33 -14 4 8 3 20 -4 28 -10 12 -8 13 15 9 15 -3 32 -2 39 2 15 10 1 33
-15 27 -13 -5 -42 31 -38 46 1 4 -3 18 -10 30 -7 12 -11 30 -9 40 1 10 -4 17
-13 17 -9 0 -16 5 -16 10 0 17 -80 12 -81 -5z"/>
<path d="M959 1677 c-1 -4 -2 -10 -3 -14 -1 -5 -5 -14 -9 -21 -9 -13 0 -52 12
-52 4 0 7 -10 8 -21 3 -39 20 -45 59 -24 20 11 38 25 41 31 6 17 -27 65 -39
58 -6 -4 -13 -3 -17 2 -12 17 -51 47 -52 41z"/>
<path d="M1366 1673 c-11 -12 -6 -23 11 -23 14 0 13 -5 -9 -26 -25 -26 -25
-27 -7 -45 24 -24 24 -24 48 2 10 11 25 22 32 23 39 8 48 17 38 40 -8 18 -20
23 -51 24 -22 1 -43 4 -48 7 -4 2 -10 2 -14 -2z"/>
<path d="M2767 1664 c-47 -15 -48 -16 -41 -47 13 -62 23 -79 42 -72 9 4 32 9
50 12 32 6 33 7 28 45 -5 33 -22 80 -29 77 -1 0 -24 -7 -50 -15z"/>
<path d="M486 1661 c-4 -5 -2 -12 3 -15 5 -4 12 -2 15 3 4 5 2 12 -3 15 -5 4
-12 2 -15 -3z"/>
<path d="M725 1650 c-3 -4 -14 -6 -25 -3 -14 4 -20 0 -20 -10 0 -20 17 -31 25
-17 5 8 13 6 24 -4 16 -15 19 -14 29 8 9 20 8 25 -9 29 -10 3 -21 1 -24 -3z"/>
<path d="M2673 1649 c-15 -5 -22 -15 -20 -28 4 -29 13 -34 40 -27 20 5 23 11
19 31 -6 31 -11 35 -39 24z"/>
<path d="M1516 1624 c-9 -24 -7 -31 9 -38 9 -3 19 3 25 14 8 15 6 21 -9 29
-15 8 -20 7 -25 -5z"/>
<path d="M1434 1575 c-8 -21 5 -37 26 -30 13 4 25 -4 40 -25 13 -19 26 -28 31
-23 14 14 20 53 8 53 -20 0 -25 2 -41 17 -15 13 -18 13 -18 2 -1 -10 -4 -9
-14 4 -16 21 -25 22 -32 2z"/>
<path d="M712 1568 c-6 -6 -8 -16 -5 -24 4 -10 10 -10 29 -2 14 6 23 16 21 21
-4 14 -33 17 -45 5z"/>
<path d="M655 1559 c-10 -15 1 -23 20 -15 9 3 13 10 10 16 -8 13 -22 13 -30
-1z"/>
<path d="M812 1554 c4 -21 22 -23 26 -1 2 10 -3 17 -13 17 -10 0 -15 -6 -13
-16z"/>
<path d="M400 1545 c0 -8 7 -15 15 -15 8 0 15 7 15 15 0 8 -7 15 -15 15 -8 0
-15 -7 -15 -15z"/>
<path d="M1918 1554 c-7 -6 2 -44 11 -45 8 -1 32 -7 60 -15 18 -5 22 -4 19 7
-3 8 -11 13 -18 11 -8 -2 -10 3 -7 12 4 10 -2 20 -13 26 -15 8 -20 8 -20 -1 0
-8 -4 -9 -13 0 -8 6 -16 8 -19 5z"/>
<path d="M2510 1545 c-7 -8 -10 -15 -6 -15 3 0 1 -11 -4 -24 -10 -28 4 -51 37
-59 31 -7 73 27 68 54 -6 28 -25 51 -39 46 -6 -3 -18 -1 -27 4 -11 6 -21 4
-29 -6z"/>
<path d="M610 1530 c0 -5 -9 -10 -20 -10 -11 0 -20 -4 -20 -10 0 -5 16 -10 35
-10 33 0 35 2 25 20 -12 22 -20 26 -20 10z"/>
<path d="M1815 1530 c-4 -6 -1 -18 6 -26 10 -12 8 -19 -12 -41 l-24 -26 30 7
c52 11 54 12 61 19 4 4 2 7 -5 7 -6 0 -11 6 -10 13 3 26 -2 37 -20 47 -14 7
-22 7 -26 0z"/>
<path d="M2036 1532 c-3 -6 -1 -14 5 -17 15 -10 25 3 12 16 -7 7 -13 7 -17 1z"/>
<path d="M485 1521 c-4 -7 -1 -18 5 -26 7 -8 10 -21 7 -29 -6 -15 19 -30 34
-20 15 9 10 27 -15 58 -16 19 -26 24 -31 17z"/>
<path d="M2732 1511 c-16 -10 -2 -63 15 -57 8 3 21 6 29 6 14 0 15 33 1 47
-10 10 -32 12 -45 4z"/>
<path d="M286 1481 c-4 -7 -5 -15 -2 -18 9 -9 19 4 14 18 -4 11 -6 11 -12 0z"/>
<path d="M1595 1479 c-10 -15 1 -23 20 -15 9 3 13 10 10 16 -8 13 -22 13 -30
-1z"/>
<path d="M1687 1457 c-3 -7 -1 -20 3 -28 7 -11 10 -10 16 4 4 10 2 23 -3 28
-7 7 -12 6 -16 -4z"/>
<path d="M155 1450 c-7 -12 2 -30 16 -30 12 0 12 27 0 35 -5 3 -12 1 -16 -5z"/>
<path d="M2406 1434 c-7 -19 1 -34 19 -34 18 0 28 32 13 42 -19 11 -25 10 -32
-8z"/>
<path d="M97 1425 c-15 -7 -34 -11 -44 -9 -23 6 -56 -28 -51 -53 2 -10 23 -29
47 -42 l44 -24 26 32 c14 17 32 31 39 31 15 0 15 0 1 38 -13 37 -29 44 -62 27z"/>
<path d="M755 1430 c-3 -5 1 -10 10 -10 9 0 13 5 10 10 -3 6 -8 10 -10 10 -2
0 -7 -4 -10 -10z"/>
<path d="M1980 1426 c0 -2 8 -10 18 -17 15 -13 16 -12 3 4 -13 16 -21 21 -21
13z"/>
<path d="M507 1406 c-8 -20 20 -43 35 -28 14 14 3 42 -16 42 -7 0 -16 -6 -19
-14z"/>
<path d="M721 1376 c-9 -10 -8 -16 3 -26 19 -15 36 -5 36 21 0 22 -22 25 -39
5z"/>
<path d="M777 1376 c-7 -17 18 -40 33 -31 5 3 10 15 10 26 0 23 -35 27 -43 5z"/>
<path d="M216 1351 c-4 -7 -5 -15 -2 -18 9 -9 19 4 14 18 -4 11 -6 11 -12 0z"/>
<path d="M660 1345 c0 -8 7 -15 15 -15 8 0 15 7 15 15 0 8 -7 15 -15 15 -8 0
-15 -7 -15 -15z"/>
<path d="M613 1322 c-8 -5 -9 -13 -3 -22 6 -10 13 -11 19 -5 13 13 -1 36 -16
27z"/>
<path d="M704 1314 c3 -9 6 -18 6 -20 0 -3 5 -2 10 1 16 10 12 35 -6 35 -11 0
-14 -5 -10 -16z"/>
<path d="M2375 1309 c-9 -28 9 -46 30 -29 20 16 19 23 -4 37 -17 11 -21 9 -26
-8z"/>
<path d="M435 1310 c-7 -12 2 -30 16 -30 12 0 12 27 0 35 -5 3 -12 1 -16 -5z"/>
<path d="M232 1278 c-9 -9 -8 -16 5 -30 20 -22 49 -23 57 -3 7 20 -46 49 -62
33z"/>
<path d="M336 1271 c-4 -5 -2 -12 3 -15 5 -4 12 -2 15 3 4 5 2 12 -3 15 -5 4
-12 2 -15 -3z"/>
<path d="M583 1263 c-17 -6 -16 -28 1 -42 12 -10 17 -8 25 7 12 22 -4 43 -26
35z"/>
<path d="M703 1263 c-17 -6 -17 -39 0 -46 19 -7 40 28 24 41 -7 5 -18 7 -24 5z"/>
<path d="M177 1206 c-6 -16 19 -30 28 -16 7 11 -2 30 -15 30 -4 0 -10 -6 -13
-14z"/>
<path d="M657 1204 c-3 -4 -3 -12 1 -18 3 -6 7 -17 7 -25 0 -22 25 -25 25 -4
0 24 -23 57 -33 47z"/>
<path d="M504 1168 c-8 -13 -4 -15 32 -21 35 -5 60 5 50 22 -8 12 -74 12 -82
-1z"/>
<path d="M250 1155 c0 -8 7 -15 15 -15 8 0 15 7 15 15 0 8 -7 15 -15 15 -8 0
-15 -7 -15 -15z"/>
<path d="M457 1134 c-3 -3 -3 -12 0 -20 4 -11 9 -12 19 -3 8 6 14 15 14 20 0
10 -24 12 -33 3z"/>
<path d="M332 1118 c5 -15 28 -18 29 -3 0 6 -7 12 -17 13 -10 3 -15 -1 -12
-10z"/>
<path d="M530 1096 c0 -9 5 -16 10 -16 6 0 10 4 10 9 0 6 -4 13 -10 16 -5 3
-10 -1 -10 -9z"/>
<path d="M130 1086 c0 -9 5 -16 10 -16 6 0 10 4 10 9 0 6 -4 13 -10 16 -5 3
-10 -1 -10 -9z"/>
<path d="M350 1070 c0 -5 7 -10 16 -10 8 0 12 5 9 10 -3 6 -10 10 -16 10 -5 0
-9 -4 -9 -10z"/>
<path d="M590 1065 c0 -8 5 -15 10 -15 6 0 10 7 10 15 0 8 -4 15 -10 15 -5 0
-10 -7 -10 -15z"/>
<path d="M691 1057 c-12 -18 -11 -23 10 -40 22 -18 24 -18 36 0 18 23 13 44
-13 53 -15 6 -24 3 -33 -13z"/>
<path d="M5 1060 c-7 -11 2 -30 15 -30 4 0 10 6 13 14 6 16 -19 30 -28 16z"/>
<path d="M362 1018 c-8 -8 -9 -15 -1 -25 18 -21 41 -16 37 9 -4 26 -19 33 -36
16z"/>
<path d="M593 999 c-23 -9 -31 -33 -13 -44 11 -7 48 14 54 31 6 17 -14 23 -41
13z"/>
<path d="M0 975 c0 -9 6 -12 15 -9 8 4 12 10 9 15 -8 14 -24 10 -24 -6z"/>
<path d="M65 961 c-3 -5 -1 -12 5 -16 5 -3 10 1 10 9 0 18 -6 21 -15 7z"/>
<path d="M1651 946 c-14 -16 -5 -42 17 -51 10 -4 22 2 33 17 17 22 17 23 -4
35 -28 16 -32 16 -46 -1z"/>
<path d="M1321 902 c-9 -18 -8 -23 8 -31 25 -14 38 16 17 37 -12 12 -15 12
-25 -6z"/>
<path d="M80 876 c0 -9 7 -16 16 -16 9 0 14 5 12 12 -6 18 -28 21 -28 4z"/>
<path d="M1536 883 c-11 -11 -6 -41 7 -46 7 -3 19 3 25 14 10 15 8 20 -7 28
-10 6 -21 7 -25 4z"/>
<path d="M965 869 c-11 -17 1 -21 15 -4 8 9 8 15 2 15 -6 0 -14 -5 -17 -11z"/>
<path d="M540 851 c0 -26 27 -34 39 -12 12 21 5 31 -21 31 -11 0 -18 -7 -18
-19z"/>
<path d="M1025 841 c-3 -5 -1 -12 5 -16 5 -3 10 1 10 9 0 18 -6 21 -15 7z"/>
<path d="M1042 764 c3 -17 21 -21 26 -6 1 5 -4 12 -13 16 -11 4 -15 1 -13 -10z"/>
<path d="M1503 744 c-9 -23 13 -40 32 -24 12 10 13 16 4 26 -15 18 -28 18 -36
-2z"/>
</g>
</svg>
